<svg xmlns="http://www.w3.org/2000/svg" viewBox="0 0 48 48">
  <rect width="48" height="48" rx="10" fill="#ffffff"/>
  <path
    d="M8 12.5c4.8-2.2 9.7-2.2 14.5 0 1 .5 1.5 1.2 1.5 2.3v22.7c0 .7-.7 1.2-1.3.9-4.7-2-9.5-2-14.2.1-.7.3-1.5-.2-1.5-.9V14.2c0-.7.4-1.4 1-1.7Zm17.5 0c4.8-2.2 9.7-2.2 14.5 0 .6.3 1 .9 1 1.7v23.4c0 .7-.8 1.2-1.5.9-4.7-2.1-9.5-2.1-14.2-.1-.6.3-1.3-.2-1.3-.9V14.8c0-1.1.5-1.8 1.5-2.3Z"
    fill="none"
    stroke="#000000"
    stroke-linejoin="round"
    stroke-width="2.2"
  />
  <path
    d="M24 14.2v24.3M11.5 18.5c2.7-.8 5.5-.8 8.3 0M11.5 23.5c2.7-.8 5.5-.8 8.3 0M28.2 18.5c2.8-.8 5.6-.8 8.3 0M28.2 23.5c2.8-.8 5.6-.8 8.3 0"
    fill="none"
    stroke="#000000"
    stroke-linecap="round"
    stroke-width="1.8"
  />
</svg>
